<svg width="800" height="500" viewBox="0 0 800 500" fill="none" xmlns="http://www.w3.org/2000/svg">
  <defs>
    <linearGradient id="bg3" x1="0" y1="0" x2="800" y2="500" gradientUnits="userSpaceOnUse">
      <stop offset="0" stop-color="#0d1715"/>
      <stop offset="1" stop-color="#070d0c"/>
    </linearGradient>
    <radialGradient id="glow3" cx="0.5" cy="0.3" r="0.8">
      <stop offset="0" stop-color="#2dd4bf" stop-opacity="0.32"/>
      <stop offset="1" stop-color="#2dd4bf" stop-opacity="0"/>
    </radialGradient>
    <linearGradient id="area3" x1="0" y1="0" x2="0" y2="1">
      <stop offset="0" stop-color="#2dd4bf" stop-opacity="0.45"/>
      <stop offset="1" stop-color="#2dd4bf" stop-opacity="0"/>
    </linearGradient>
  </defs>
  <rect width="800" height="500" fill="url(#bg3)"/>
  <rect width="800" height="500" fill="url(#glow3)"/>
  <rect x="70" y="70" width="660" height="360" rx="16" fill="#0a1413" stroke="#16302c" stroke-width="1.5"/>
  <line x1="70" y1="110" x2="730" y2="110" stroke="#16302c" stroke-width="1.5"/>
  <circle cx="94" cy="90" r="5" fill="#ff5f57"/><circle cx="114" cy="90" r="5" fill="#febc2e"/><circle cx="134" cy="90" r="5" fill="#28c840"/>
  <!-- líneas de rejilla -->
  <g stroke="#13433d" stroke-width="1">
    <line x1="110" y1="180" x2="690" y2="180"/>
    <line x1="110" y1="250" x2="690" y2="250"/>
    <line x1="110" y1="320" x2="690" y2="320"/>
  </g>
  <!-- área bajo curva -->
  <path d="M110 330 L180 300 L250 315 L320 250 L390 270 L460 200 L530 225 L600 165 L690 190 L690 380 L110 380 Z" fill="url(#area3)"/>
  <!-- curva principal -->
  <path d="M110 330 L180 300 L250 315 L320 250 L390 270 L460 200 L530 225 L600 165 L690 190" fill="none" stroke="#2dd4bf" stroke-width="3" stroke-linecap="round" stroke-linejoin="round"/>
  <!-- puntos -->
  <g fill="#0a1413" stroke="#2dd4bf" stroke-width="2.5">
    <circle cx="320" cy="250" r="5"/><circle cx="460" cy="200" r="5"/><circle cx="600" cy="165" r="5"/>
  </g>
  <!-- KPIs -->
  <g font-family="ui-monospace, monospace">
    <text x="110" y="150" font-size="13" fill="#5a8e85">conversions</text>
    <text x="110" y="148" font-size="13" fill="#5a8e85"></text>
    <text x="560" y="150" font-size="26" font-weight="700" fill="#2dd4bf">+38%</text>
  </g>
</svg>
