<svg width="800" height="500" viewBox="0 0 800 500" fill="none" xmlns="http://www.w3.org/2000/svg">
  <defs>
    <linearGradient id="bg1" x1="0" y1="0" x2="800" y2="500" gradientUnits="userSpaceOnUse">
      <stop offset="0" stop-color="#1a1410"/>
      <stop offset="1" stop-color="#0e0b08"/>
    </linearGradient>
    <radialGradient id="glow1" cx="0.7" cy="0.2" r="0.8">
      <stop offset="0" stop-color="#f0b429" stop-opacity="0.35"/>
      <stop offset="1" stop-color="#f0b429" stop-opacity="0"/>
    </radialGradient>
    <linearGradient id="bar1" x1="0" y1="1" x2="0" y2="0">
      <stop offset="0" stop-color="#f0b429" stop-opacity="0.3"/>
      <stop offset="1" stop-color="#f0b429"/>
    </linearGradient>
  </defs>
  <rect width="800" height="500" fill="url(#bg1)"/>
  <rect width="800" height="500" fill="url(#glow1)"/>
  <!-- ventana -->
  <rect x="70" y="70" width="660" height="360" rx="16" fill="#100c09" stroke="#2a2017" stroke-width="1.5"/>
  <line x1="70" y1="110" x2="730" y2="110" stroke="#2a2017" stroke-width="1.5"/>
  <circle cx="94" cy="90" r="5" fill="#ff5f57"/><circle cx="114" cy="90" r="5" fill="#febc2e"/><circle cx="134" cy="90" r="5" fill="#28c840"/>
  <!-- sidebar -->
  <rect x="70" y="110" width="120" height="320" fill="#0c0906"/>
  <rect x="90" y="140" width="80" height="10" rx="5" fill="#f0b429" fill-opacity="0.8"/>
  <rect x="90" y="170" width="64" height="8" rx="4" fill="#3a2d1c"/>
  <rect x="90" y="192" width="72" height="8" rx="4" fill="#3a2d1c"/>
  <rect x="90" y="214" width="56" height="8" rx="4" fill="#3a2d1c"/>
  <!-- cards -->
  <rect x="214" y="140" width="150" height="70" rx="10" fill="#16110b" stroke="#2a2017"/>
  <rect x="384" y="140" width="150" height="70" rx="10" fill="#16110b" stroke="#2a2017"/>
  <rect x="554" y="140" width="150" height="70" rx="10" fill="#16110b" stroke="#2a2017"/>
  <rect x="232" y="158" width="40" height="8" rx="4" fill="#f0b429" fill-opacity="0.7"/>
  <rect x="232" y="178" width="70" height="14" rx="4" fill="#5a4526"/>
  <rect x="402" y="158" width="40" height="8" rx="4" fill="#f0b429" fill-opacity="0.7"/>
  <rect x="402" y="178" width="70" height="14" rx="4" fill="#5a4526"/>
  <rect x="572" y="158" width="40" height="8" rx="4" fill="#f0b429" fill-opacity="0.7"/>
  <rect x="572" y="178" width="70" height="14" rx="4" fill="#5a4526"/>
  <!-- chart -->
  <rect x="214" y="232" width="490" height="178" rx="10" fill="#16110b" stroke="#2a2017"/>
  <rect x="250" y="330" width="34" height="60" rx="4" fill="url(#bar1)"/>
  <rect x="300" y="300" width="34" height="90" rx="4" fill="url(#bar1)"/>
  <rect x="350" y="350" width="34" height="40" rx="4" fill="url(#bar1)"/>
  <rect x="400" y="290" width="34" height="100" rx="4" fill="url(#bar1)"/>
  <rect x="450" y="320" width="34" height="70" rx="4" fill="url(#bar1)"/>
  <rect x="500" y="270" width="34" height="120" rx="4" fill="url(#bar1)"/>
  <rect x="550" y="310" width="34" height="80" rx="4" fill="url(#bar1)"/>
  <rect x="600" y="295" width="34" height="95" rx="4" fill="url(#bar1)"/>
  <rect x="650" y="340" width="34" height="50" rx="4" fill="url(#bar1)"/>
  <text x="234" y="270" font-family="ui-monospace, monospace" font-size="13" fill="#8a6d3b">analytics · SaaS</text>
</svg>
