<svg width="1200" height="630" viewBox="0 0 1200 630" fill="none" xmlns="http://www.w3.org/2000/svg">
  <defs>
    <linearGradient id="bg" x1="0" y1="0" x2="1" y2="1">
      <stop offset="0" stop-color="#0b0f1a"/>
      <stop offset="1" stop-color="#111827"/>
    </linearGradient>
    <linearGradient id="brand" x1="0" y1="0" x2="1" y2="1">
      <stop offset="0" stop-color="#4f46e5"/>
      <stop offset="1" stop-color="#06b6d4"/>
    </linearGradient>
  </defs>
  <rect width="1200" height="630" fill="url(#bg)"/>
  <g opacity="0.12" stroke="url(#brand)" stroke-width="2">
    <line x1="0" y1="160" x2="1200" y2="160"/>
    <line x1="0" y1="470" x2="1200" y2="470"/>
  </g>
  <!-- Logo MD -->
  <g transform="translate(90,235)">
    <rect x="0" y="0" width="160" height="160" rx="36" fill="url(#brand)"/>
    <g stroke="#fff" stroke-width="11" stroke-linecap="round" stroke-linejoin="round" fill="none" transform="translate(28,30) scale(1.6)">
      <path d="M14 44 V20 L24 34 L34 20 V44"/>
      <path d="M42 20 V44"/>
      <path d="M42 20 C54 20 55 27 55 32 C55 37 54 44 42 44"/>
    </g>
  </g>
  <text x="300" y="300" font-family="Verdana, sans-serif" font-size="64" font-weight="700" fill="#ffffff">Miguel Ángel Delgado</text>
  <text x="302" y="370" font-family="monospace" font-size="34" fill="#22d3ee">Ingeniero de Software · Fullstack PHP</text>
  <text x="302" y="430" font-family="monospace" font-size="26" fill="#9ca3af">15 años construyendo software web</text>
</svg>
